<svg height="297mm" viewBox="0 0 744.09448819 1052.3622047" width="210mm" xmlns="http://www.w3.org/2000/svg" xmlns:xlink="http://www.w3.org/1999/xlink"><linearGradient id="a" gradientUnits="userSpaceOnUse" x1="215" x2="544" y1="722.36218" y2="347.37674"><stop offset="0" stop-color="#4e505d"/><stop offset="1" stop-color="#7a859c"/></linearGradient><path d="m190.03096 322.42287h399.93808v400.00002h-399.93808z" fill="none"/><path d="m212.70179 322.39151c-2.6937.00028-4.87729 2.18387-4.87757 4.87757v89.11673 301.08929c.00028 2.6937 2.18387 4.8773 4.87757 4.87757h17.76696 319.67551 17.7155c2.6937-.00027 4.8773-2.18387 4.87757-4.87757v-17.21061-283.87868-17.95176-71.16497c-.00027-2.6937-2.18387-4.87729-4.87757-4.87757zm22.64453 98.87187h309.92036v274.12354h-309.92036z" fill="url(#a)"/><g fill="#fff"><path d="m554.11061 368.00673a27.466265 27.368164 0 0 1 -27.46627 27.36817 27.466265 27.368164 0 0 1 -27.46626-27.36817 27.466265 27.368164 0 0 1 27.46626-27.36816 27.466265 27.368164 0 0 1 27.46627 27.36816z"/><path d="m481.25927 368.00673a27.345144 27.368164 0 0 1 -27.34514 27.36817 27.345144 27.368164 0 0 1 -27.34515-27.36817 27.345144 27.368164 0 0 1 27.34515-27.36816 27.345144 27.368164 0 0 1 27.34514 27.36816z"/><path d="m408.57089 368.00673a27.357574 27.368164 0 0 1 -27.35757 27.36817 27.357574 27.368164 0 0 1 -27.35758-27.36817 27.357574 27.368164 0 0 1 27.35758-27.36816 27.357574 27.368164 0 0 1 27.35757 27.36816z"/></g><g fill="#99b000" transform="translate(345.99194 -286.84611)"><path d="m-9.5780383 811.1535-67.0028327 25.83085 67.0028327 25.67525v19.45094l-91.7444317-36.02315v-18.36169l91.7444317-36.02314z"/><path d="m63.169496 772.46331h17.272437l-55.941926 129.17597h-17.194633z"/><path d="m98.386012 811.1535v-19.45094l91.744428 36.02314v18.36169l-91.744428 36.02315v-19.45094l67.080638-25.67525z"/></g></svg>