<svg fill="none" height="48" viewBox="0 0 48 48" width="48" xmlns="http://www.w3.org/2000/svg"><path d="m0 0h48v48h-48z" fill="#fff" fill-opacity=".01"/><g stroke="#000" stroke-linecap="round" stroke-linejoin="round" stroke-width="4"><path d="m37 22.0001-3 3-11-11 3-3c1.5-1.50008 7-4.00005 11 0 4 4 1.5 9.4999 0 11z" fill="#2f88ff"/><path d="m42 6-5 5"/><path d="m11 25.9999 3-3 11 11-3 3c-1.5 1.5001-7 4.0001-11 0-4-4-1.5-9.4999 0-11z" fill="#2f88ff"/><path d="m23 32 4-4"/><path d="m6 42 5-5"/><path d="m16 25 4-4"/></g></svg>