<?xml version="1.0" standalone="no"?><svg xmlns="http://www.w3.org/2000/svg" viewBox="0 0 1440 320"><path fill="#436be2" fill-opacity="1" d="M0,0L17.1,10.7C34.3,21,69,43,103,53.3C137.1,64,171,64,206,90.7C240,117,274,171,309,192C342.9,213,377,203,411,192C445.7,181,480,171,514,170.7C548.6,171,583,181,617,165.3C651.4,149,686,107,720,101.3C754.3,96,789,128,823,133.3C857.1,139,891,117,926,106.7C960,96,994,96,1029,128C1062.9,160,1097,224,1131,245.3C1165.7,267,1200,245,1234,213.3C1268.6,181,1303,139,1337,112C1371.4,85,1406,75,1423,69.3L1440,64L1440,320L1422.9,320C1405.7,320,1371,320,1337,320C1302.9,320,1269,320,1234,320C1200,320,1166,320,1131,320C1097.1,320,1063,320,1029,320C994.3,320,960,320,926,320C891.4,320,857,320,823,320C788.6,320,754,320,720,320C685.7,320,651,320,617,320C582.9,320,549,320,514,320C480,320,446,320,411,320C377.1,320,343,320,309,320C274.3,320,240,320,206,320C171.4,320,137,320,103,320C68.6,320,34,320,17,320L0,320Z"></path></svg>